<svg width="20" height="20" viewBox="0 0 20 20" fill="none" xmlns="http://www.w3.org/2000/svg">
<path d="M10 5C12.7614 5 15 7.23858 15 10C15 12.7614 12.7614 15 10 15C7.23858 15 5 12.7614 5 10H7C7 11.6569 8.34315 13 10 13C11.6569 13 13 11.6569 13 10C13 8.34315 11.6569 7 10 7V5Z" fill="#D9D9D9"/>
<path d="M7.02937 6.79241C6.50936 6.3921 6.50936 5.6079 7.02937 5.20759L8.89001 3.77527C9.54758 3.26908 10.5 3.73784 10.5 4.56768L10.5 7.43232C10.5 8.26216 9.54758 8.73092 8.89001 8.22473L7.02937 6.79241Z" fill="#D9D9D9"/>
<rect x="5" y="9" width="2" height="2" rx="1" fill="#D9D9D9"/>
</svg>
